<?xml version="1.0" encoding="UTF-8"?>
<svg width="14px" height="14px" viewBox="0 0 14 14" version="1.1" xmlns="http://www.w3.org/2000/svg" xmlns:xlink="http://www.w3.org/1999/xlink">
    <!-- Generator: sketchtool 42 (36781) - http://www.bohemiancoding.com/sketch -->
    <title>FB034524-D3C2-4365-A3FD-6C4D553043E3</title>
    <desc>Created with sketchtool.</desc>
    <defs></defs>
    <g id="Symbols" stroke="none" stroke-width="1" fill="none" fill-rule="evenodd">
        <g id="Project/EditDropdowns" transform="translate(-297.000000, -173.000000)" fill="#999999">
            <g id="Project/Edit">
                <g id="Group-3" transform="translate(20.000000, 170.000000)">
                    <g id="Group-2">
                        <g id="Group-11">
                            <g id="Group-8" transform="translate(194.000000, 0.000000)">
                                <g id="Icons/CalendarActive" transform="translate(83.000000, 3.000000)">
                                    <g id="Layer_1">
                                        <g>
                                            <path d="M0.247058824,13.8727273 L0.247058824,2.54545455 L1.72941176,2.54545455 L1.72941176,2.54545455 C1.72941176,3.22424242 2.26470588,3.69090909 2.92352941,3.69090909 C3.58235294,3.69090909 4.11764706,3.22424242 4.11764706,2.54545455 L4.11764706,2.54545455 L9.71764706,2.54545455 L9.71764706,2.54545455 C9.71764706,3.22424242 10.2529412,3.69090909 10.9117647,3.69090909 C11.5705882,3.69090909 12.1058824,3.22424242 12.1058824,2.54545455 L12.1058824,2.54545455 L13.6705882,2.54545455 L13.6705882,13.9151515 L0.247058824,13.9151515 L0.247058824,13.8727273 Z M12.4352941,4.53939394 L1.4,4.53939394 L1.4,12.6848485 L12.4352941,12.6848485 L12.4352941,4.53939394 Z M4.94117647,8.23030303 L2.63529412,8.23030303 L2.63529412,5.81212121 L4.94117647,5.81212121 L4.94117647,8.23030303 Z M4.94117647,11.4545455 L2.63529412,11.4545455 L2.63529412,9.03636364 L4.94117647,9.03636364 L4.94117647,11.4545455 Z M8.07058824,8.23030303 L5.76470588,8.23030303 L5.76470588,5.81212121 L8.07058824,5.81212121 L8.07058824,8.23030303 Z M8.07058824,11.4545455 L5.76470588,11.4545455 L5.76470588,9.07878788 L8.07058824,9.07878788 L8.07058824,11.4545455 Z M11.2411765,8.23030303 L8.93529412,8.23030303 L8.93529412,5.81212121 L11.2411765,5.81212121 L11.2411765,8.23030303 Z M11.2411765,11.4545455 L8.93529412,11.4545455 L8.93529412,9.03636364 L11.2411765,9.03636364 L11.2411765,11.4545455 Z M10.8705882,3.0969697 C10.5,3.0969697 10.2117647,2.8 10.2117647,2.41818182 L10.2117647,0.721212121 C10.2117647,0.339393939 10.5,0.0424242424 10.8705882,0.0424242424 C11.2411765,0.0424242424 11.5294118,0.339393939 11.5294118,0.721212121 L11.5294118,2.41818182 C11.4882353,2.8 11.2,3.0969697 10.8705882,3.0969697 Z M2.88235294,3.0969697 C2.51176471,3.0969697 2.22352941,2.8 2.22352941,2.41818182 L2.22352941,0.721212121 C2.22352941,0.339393939 2.51176471,0.0424242424 2.88235294,0.0424242424 C3.25294118,0.0424242424 3.54117647,0.339393939 3.54117647,0.721212121 L3.54117647,2.41818182 C3.54117647,2.8 3.25294118,3.0969697 2.88235294,3.0969697 Z" id="path-1_3_"></path>
                                        </g>
                                    </g>
                                </g>
                            </g>
                        </g>
                    </g>
                </g>
            </g>
        </g>
    </g>
</svg>