<?xml version="1.0" encoding="UTF-8" standalone="no"?>
<svg width="62px" height="22px" viewBox="0 0 62 22" version="1.1" xmlns="http://www.w3.org/2000/svg" xmlns:xlink="http://www.w3.org/1999/xlink">
    <!-- Generator: sketchtool 41.2 (35397) - http://www.bohemiancoding.com/sketch -->
    <title>D723308B-8C1C-4E12-B62C-7A06A89E9750</title>
    <desc>Created with sketchtool.</desc>
    <defs>
        <polygon id="path-1" points="0.125976096 21.9851685 18.3411315 21.9851685 18.3411315 0.228651685 0.125976096 0.228651685"></polygon>
    </defs>
    <g id="Page-1" stroke="none" stroke-width="1" fill="none" fill-rule="evenodd">
        <g id="ActivityBooster_EmployeesTable" transform="translate(-20.000000, -909.000000)">
            <g id="Footer" transform="translate(0.000000, 898.000000)">
                <g id="Logo" transform="translate(20.000000, 11.000000)">
                    <g id="Group-4" transform="translate(9.139442, 0.000000)">
                        <mask id="mask-2" fill="white">
                            <use xlink:href="#path-1"></use>
                        </mask>
                        <g id="Clip-2"></g>
                        <path d="M2.53187251,7.63202247 L5.95076494,7.63202247 L5.95076494,3.99880899 C5.95076494,2.98507865 5.44463745,2.47808989 4.43139442,2.47808989 L4.05149004,2.47808989 C3.03849402,2.47808989 2.53187251,2.98507865 2.53187251,3.99880899 L2.53187251,7.63202247 Z M2.52421514,9.95042697 L2.53187251,13.9465169 C2.53187251,14.9602472 3.03849402,15.467236 4.05149004,15.467236 L4.49462948,15.467236 C5.50787251,15.467236 6.01424701,14.9602472 6.01424701,13.9465169 L6.01424701,11.9823371 L8.35690837,11.9823371 L8.35690837,13.8515955 C8.35690837,16.4176854 7.05910757,17.716427 4.49462948,17.716427 L3.98825498,17.716427 C1.42377689,17.716427 0.125976096,16.4176854 0.125976096,14.1519326 L0.125976096,4.39431461 C0.125976096,1.52764045 1.42377689,0.228651685 3.98825498,0.228651685 L4.49462948,0.228651685 C7.05910757,0.228651685 8.35690837,1.52764045 8.35690837,4.09397753 L8.349251,9.95042697 L2.52421514,9.95042697 L2.52421514,9.95042697 Z" id="Fill-1" fill="#FFFFFF" mask="url(#mask-2)"></path>
                        <path d="M12.3261434,14.548427 C12.9908526,15.1186966 13.7506614,15.4353483 14.5420876,15.4353483 C15.4286135,15.4353483 15.9352351,15.0237753 15.9352351,14.0416854 L15.9352351,3.90388764 C15.9352351,2.92155056 15.4286135,2.50973034 14.5420876,2.50973034 C13.7506614,2.50973034 12.9908526,2.82662921 12.3261434,3.39689888 L12.3261434,14.548427 Z M9.92,0.418741573 L12.3261434,0.418741573 L12.3261434,1.52764045 C12.896,0.925730337 13.8773785,0.228651685 15.2702789,0.228651685 C17.3281355,0.228651685 18.3411315,1.59092135 18.3411315,3.61862921 L18.3411315,14.3266966 C18.3411315,16.3541573 17.3281355,17.716427 15.2702789,17.716427 C13.8773785,17.716427 12.896,17.051236 12.3261434,16.4809663 L12.3261434,22 L9.92,22 L9.92,0.418741573 L9.92,0.418741573 Z" id="Fill-3" fill="#FFFFFF" mask="url(#mask-2)"></path>
                    </g>
                    <path d="M34.6945578,14.6435955 L34.6945578,9.00047191 L32.5102311,9.82806742 C31.6237052,10.1766067 31.3389004,10.6200674 31.3389004,11.6021573 L31.3389004,14.2001348 C31.3389004,15.0237753 31.7504223,15.4353483 32.5102311,15.4353483 C33.2381753,15.4353483 33.9031315,15.1819775 34.6945578,14.6435955 Z M28.932757,11.5705169 C28.932757,9.44788764 29.6293307,8.59260674 31.4653705,7.95905618 L34.6945578,6.8501573 L34.6945578,3.99880899 C34.6945578,2.98507865 34.1879363,2.44644944 33.1749402,2.44644944 L32.7829323,2.44644944 C31.7699363,2.44644944 31.2633147,2.98507865 31.2633147,3.99880899 L31.2633147,6.42177528 L28.9206534,6.42177528 L28.9206534,4.09397753 C28.9206534,1.52764045 30.2187012,0.228651685 32.7829323,0.228651685 L33.2381753,0.228651685 C35.8024064,0.228651685 37.1004542,1.52764045 37.1004542,4.09397753 L37.1004542,17.5263371 L34.6945578,17.5263371 L34.6945578,16.4493258 C34.0298486,17.0828764 33.1433227,17.716427 31.7504223,17.716427 C29.8192829,17.716427 28.932757,16.6075281 28.932757,14.7068764 L28.932757,11.5705169 L28.932757,11.5705169 Z" id="Fill-5" fill="#FFFFFF"></path>
                    <path d="M46.83149,17.5263371 L44.4253466,17.5263371 L44.4253466,3.7454382 C44.4253466,2.88991011 44.0140717,2.50973034 43.2858805,2.50973034 C42.6209243,2.50973034 41.9245976,2.76310112 41.0696892,3.36525843 L41.0696892,17.5263371 L38.6637928,17.5263371 L38.6637928,0.418741573 L41.0696892,0.418741573 L41.0696892,1.52764045 C41.7662629,0.862449438 42.6844064,0.228651685 44.0140717,0.228651685 C45.2486375,0.228651685 46.0716813,0.735640449 46.5148207,1.62280899 C47.3697291,0.894089888 48.3827251,0.228651685 49.7756255,0.228651685 C51.6435299,0.228651685 52.5932908,1.3694382 52.5932908,3.23844944 L52.5932908,17.5263371 L50.1871474,17.5263371 L50.1871474,3.7454382 C50.1871474,2.88991011 49.7756255,2.50973034 49.0474343,2.50973034 C48.3827251,2.50973034 47.6861514,2.76310112 46.83149,3.36525843 L46.83149,17.5263371" id="Fill-6" fill="#FFFFFF"></path>
                    <polyline id="Fill-7" fill="#44BAC7" points="6.18172112 1.99458427 6.18172112 5.14033708 2.1327012 9.00146067 6.18172112 12.793618 6.18172112 16.0083371 0 10.1931685 0 7.8787191 6.18172112 1.99458427"></polyline>
                    <polyline id="Fill-8" fill="#44BAC7" points="61.8275857 7.8787191 61.8275857 10.1931685 55.6458645 16.0083371 55.6458645 12.793618 59.6948845 9.00146067 55.6458645 5.14033708 55.6458645 1.99458427 61.8275857 7.8787191"></polyline>
                </g>
            </g>
        </g>
    </g>
</svg>