<?xml version="1.0" encoding="UTF-8" standalone="no"?>
<svg width="14px" height="14px" viewBox="0 0 14 14" version="1.1" xmlns="http://www.w3.org/2000/svg" xmlns:xlink="http://www.w3.org/1999/xlink">
    <!-- Generator: sketchtool 41.2 (35397) - http://www.bohemiancoding.com/sketch -->
    <title>00FF357B-6F76-4248-928D-FF9651524CA0</title>
    <desc>Created with sketchtool.</desc>
    <defs></defs>
    <g id="Symbols" stroke="none" stroke-width="1" fill="none" fill-rule="evenodd">
        <g id="Header" transform="translate(-1192.000000, -23.000000)" fill="#FEFFFF">
            <g id="searchIcon">
                <g transform="translate(1192.000000, 23.000000)">
                    <path d="M13.808,13.808 C13.579,14.036 13.211,14.036 12.983,13.808 L9.622,10.45 C8.607,11.283 7.309,11.782 5.891,11.782 C2.636,11.782 0,9.143 0,5.891 C0,2.639 2.636,0 5.891,0 C9.143,0 11.782,2.639 11.782,5.891 C11.782,7.309 11.28,8.61 10.447,9.625 L13.808,12.986 C14.036,13.211 14.036,13.582 13.808,13.808 Z M10.612,5.891 C10.612,3.289 8.493,1.17 5.891,1.17 C3.286,1.17 1.17,3.289 1.17,5.891 C1.17,8.493 3.286,10.61 5.891,10.61 C8.493,10.61 10.612,8.493 10.612,5.891 Z" id="Shape"></path>
                </g>
            </g>
        </g>
    </g>
</svg>