<?xml version="1.0" encoding="UTF-8" standalone="no"?>
<svg width="16px" height="16px" viewBox="0 0 16 16" version="1.1" xmlns="http://www.w3.org/2000/svg" xmlns:xlink="http://www.w3.org/1999/xlink">
    <!-- Generator: sketchtool 41.2 (35397) - http://www.bohemiancoding.com/sketch -->
    <title>D1F47D44-D89A-44AB-B97D-7644EB0A43F6</title>
    <desc>Created with sketchtool.</desc>
    <defs></defs>
    <g id="Symbols" stroke="none" stroke-width="1" fill="none" fill-rule="evenodd">
        <g id="Subheader/Activities/TreeView" transform="translate(-56.000000, -17.000000)" fill="#CCCCCC">
            <g id="Subheader/Activities">
                <g id="Icons/TableView" transform="translate(56.000000, 17.000000)">
                    <path d="M0,0 L4.70588235,0 L4.70588235,4.70588235 L0,4.70588235 L0,0 Z M5.64705882,0 L10.3529412,0 L10.3529412,4.70588235 L5.64705882,4.70588235 L5.64705882,0 Z M11.2941176,0 L16,0 L16,4.70588235 L11.2941176,4.70588235 L11.2941176,0 Z M0,5.64705882 L4.70588235,5.64705882 L4.70588235,10.3529412 L0,10.3529412 L0,5.64705882 Z M5.64705882,5.64705882 L10.3529412,5.64705882 L10.3529412,10.3529412 L5.64705882,10.3529412 L5.64705882,5.64705882 Z M11.2941176,5.64705882 L16,5.64705882 L16,10.3529412 L11.2941176,10.3529412 L11.2941176,5.64705882 Z M0,11.2941176 L4.70588235,11.2941176 L4.70588235,16 L0,16 L0,11.2941176 Z M5.64705882,11.2941176 L10.3529412,11.2941176 L10.3529412,16 L5.64705882,16 L5.64705882,11.2941176 Z M11.2941176,11.2941176 L16,11.2941176 L16,16 L11.2941176,16 L11.2941176,11.2941176 Z"></path>
                </g>
            </g>
        </g>
    </g>
</svg>